<svg width="77" height="29" viewBox="0 0 77 29" fill="none" xmlns="http://www.w3.org/2000/svg">
<path d="M12.57 7V10.63H8.1V16.66C8.1 17.38 8.27 17.9 8.61 18.22C8.97 18.52 9.46 18.67 10.08 18.67C10.56 18.67 10.97 18.62 11.31 18.52C11.65 18.4 11.97 18.23 12.27 18.01L12.81 21.16C12.31 21.5 11.67 21.78 10.89 22C10.13 22.2 9.36 22.3 8.58 22.3C6.86 22.3 5.5 21.94 4.5 21.22C3.52 20.48 3.02 19.24 3 17.5V10.63H0.42V7H3V3.64L8.1 2.23V7H12.57ZM14.9257 22V7H19.4257L19.6357 10.24C19.9957 9.14 20.5457 8.28 21.2857 7.66C22.0457 7.02 23.0157 6.7 24.1957 6.7C24.5757 6.7 24.8957 6.74 25.1557 6.82C25.4357 6.88 25.6557 6.95 25.8157 7.03L25.3057 11.23C25.1057 11.17 24.8457 11.11 24.5257 11.05C24.2257 10.99 23.8557 10.96 23.4157 10.96C22.4957 10.96 21.6957 11.25 21.0157 11.83C20.3557 12.41 20.0257 13.28 20.0257 14.44V22H14.9257ZM42.9063 7L37.4463 22C36.8863 23.58 36.2763 24.84 35.6163 25.78C34.9563 26.74 34.1763 27.42 33.2763 27.82C32.3763 28.24 31.2963 28.45 30.0363 28.45C29.1763 28.45 28.3963 28.36 27.6963 28.18C27.0163 28 26.4163 27.75 25.8963 27.43L26.9163 23.98C27.2763 24.24 27.6563 24.42 28.0563 24.52C28.4563 24.64 28.9663 24.7 29.5863 24.7C30.1663 24.7 30.6363 24.6 30.9963 24.4C31.3763 24.22 31.6763 23.84 31.8963 23.26L32.2863 22.33L30.5463 18.25L26.0463 7H31.6563L33.9663 15.55L34.6863 18.73L35.5263 15.43L37.8363 7H42.9063ZM55.1006 7V10.63H50.8406V22H45.7406V10.63H43.3406V7H45.7406V5.62C45.7406 4.34 46.0106 3.31 46.5506 2.53C47.1106 1.73 47.8406 1.15 48.7406 0.789999C49.6606 0.41 50.6506 0.22 51.7106 0.22C52.5306 0.22 53.2506 0.31 53.8706 0.49C54.4906 0.649999 54.9506 0.839999 55.2506 1.06L54.7406 4.24C54.5206 4.12 54.2706 4.02 53.9906 3.94C53.7106 3.84 53.3606 3.79 52.9406 3.79C52.2206 3.79 51.6406 3.95 51.2006 4.27C50.7606 4.59 50.5406 5.15 50.5406 5.95V7H55.1006ZM59.7206 5.26C58.6806 5.26 57.9206 5.07 57.4406 4.69C56.9806 4.29 56.7506 3.67 56.7506 2.83C56.7506 1.97 56.9806 1.35 57.4406 0.969999C57.9206 0.569999 58.6806 0.37 59.7206 0.37C60.7406 0.37 61.4906 0.569999 61.9706 0.969999C62.4506 1.35 62.6906 1.97 62.6906 2.83C62.6906 3.67 62.4506 4.29 61.9706 4.69C61.4906 5.07 60.7406 5.26 59.7206 5.26ZM62.2706 7V22H57.1706V7H62.2706ZM76.6423 7V10.63H72.1723V16.66C72.1723 17.38 72.3423 17.9 72.6823 18.22C73.0423 18.52 73.5323 18.67 74.1523 18.67C74.6323 18.67 75.0423 18.62 75.3823 18.52C75.7223 18.4 76.0423 18.23 76.3423 18.01L76.8823 21.16C76.3823 21.5 75.7423 21.78 74.9623 22C74.2023 22.2 73.4323 22.3 72.6523 22.3C70.9323 22.3 69.5723 21.94 68.5723 21.22C67.5923 20.48 67.0923 19.24 67.0723 17.5V10.63H64.4923V7H67.0723V3.64L72.1723 2.23V7H76.6423Z" fill="black"/>
</svg>
